<mxfile host="app.diagrams.net" modified="2020-08-05T09:48:55.002Z" agent="5.0 (Windows NT 10.0; Win64; x64) AppleWebKit/537.36 (KHTML, like Gecko) Chrome/80.0.3987.163 Safari/537.36" etag="ueTd_hkTnEzOSLMe-crs" version="13.5.9" type="github">
  <diagram id="1tBtqbOjJ05FIeQ6svS1" name="Page-1">
    <mxGraphModel dx="942" dy="582" grid="1" gridSize="10" guides="1" tooltips="1" connect="1" arrows="1" fold="1" page="1" pageScale="1" pageWidth="827" pageHeight="1169" math="0" shadow="0">
      <root>
        <mxCell id="0" />
        <mxCell id="1" parent="0" />
        <mxCell id="LMDw-yIDUV770zruASEo-2" value="" style="shape=ext;double=1;rounded=0;whiteSpace=wrap;html=1;strokeColor=#FF0000;" vertex="1" parent="1">
          <mxGeometry x="20" y="495" width="490" height="185" as="geometry" />
        </mxCell>
        <mxCell id="04eKNAp7RKAQqsqCJ_fW-8" style="edgeStyle=orthogonalEdgeStyle;rounded=0;orthogonalLoop=1;jettySize=auto;html=1;entryX=0.5;entryY=0;entryDx=0;entryDy=0;" parent="1" source="04eKNAp7RKAQqsqCJ_fW-1" target="04eKNAp7RKAQqsqCJ_fW-10" edge="1">
          <mxGeometry relative="1" as="geometry">
            <mxPoint x="130" y="170" as="targetPoint" />
          </mxGeometry>
        </mxCell>
        <mxCell id="04eKNAp7RKAQqsqCJ_fW-1" value="" style="shape=actor;whiteSpace=wrap;html=1;fontFamily=Helvetica;fontSize=12;fontColor=#000000;align=center;strokeColor=#000000;fillColor=#ffffff;" parent="1" vertex="1">
          <mxGeometry x="100" y="30" width="50" height="60" as="geometry" />
        </mxCell>
        <mxCell id="04eKNAp7RKAQqsqCJ_fW-16" style="edgeStyle=orthogonalEdgeStyle;rounded=0;orthogonalLoop=1;jettySize=auto;html=1;" parent="1" source="04eKNAp7RKAQqsqCJ_fW-10" target="04eKNAp7RKAQqsqCJ_fW-15" edge="1">
          <mxGeometry relative="1" as="geometry" />
        </mxCell>
        <mxCell id="04eKNAp7RKAQqsqCJ_fW-10" value="EXTB005领取，类型14" style="rounded=1;whiteSpace=wrap;html=1;" parent="1" vertex="1">
          <mxGeometry x="65" y="170" width="120" height="60" as="geometry" />
        </mxCell>
        <mxCell id="04eKNAp7RKAQqsqCJ_fW-41" value="" style="edgeStyle=orthogonalEdgeStyle;rounded=0;orthogonalLoop=1;jettySize=auto;html=1;" parent="1" source="04eKNAp7RKAQqsqCJ_fW-15" target="04eKNAp7RKAQqsqCJ_fW-40" edge="1">
          <mxGeometry relative="1" as="geometry" />
        </mxCell>
        <mxCell id="04eKNAp7RKAQqsqCJ_fW-15" value="通过corgoodsId获取是否是省个性化产品" style="rounded=1;whiteSpace=wrap;html=1;" parent="1" vertex="1">
          <mxGeometry x="65" y="280" width="120" height="60" as="geometry" />
        </mxCell>
        <mxCell id="04eKNAp7RKAQqsqCJ_fW-22" value="" style="edgeStyle=orthogonalEdgeStyle;rounded=0;orthogonalLoop=1;jettySize=auto;html=1;" parent="1" source="04eKNAp7RKAQqsqCJ_fW-19" target="04eKNAp7RKAQqsqCJ_fW-21" edge="1">
          <mxGeometry relative="1" as="geometry" />
        </mxCell>
        <mxCell id="04eKNAp7RKAQqsqCJ_fW-19" value="通过产品信息生成主表数据" style="rounded=1;whiteSpace=wrap;html=1;" parent="1" vertex="1">
          <mxGeometry x="65" y="695" width="120" height="60" as="geometry" />
        </mxCell>
        <mxCell id="04eKNAp7RKAQqsqCJ_fW-24" value="" style="edgeStyle=orthogonalEdgeStyle;rounded=0;orthogonalLoop=1;jettySize=auto;html=1;" parent="1" source="04eKNAp7RKAQqsqCJ_fW-21" target="04eKNAp7RKAQqsqCJ_fW-23" edge="1">
          <mxGeometry relative="1" as="geometry" />
        </mxCell>
        <mxCell id="04eKNAp7RKAQqsqCJ_fW-21" value="生成子表数据" style="whiteSpace=wrap;html=1;rounded=1;" parent="1" vertex="1">
          <mxGeometry x="65" y="835" width="120" height="60" as="geometry" />
        </mxCell>
        <mxCell id="04eKNAp7RKAQqsqCJ_fW-46" style="edgeStyle=orthogonalEdgeStyle;rounded=0;orthogonalLoop=1;jettySize=auto;html=1;" parent="1" source="04eKNAp7RKAQqsqCJ_fW-23" target="04eKNAp7RKAQqsqCJ_fW-45" edge="1">
          <mxGeometry relative="1" as="geometry" />
        </mxCell>
        <mxCell id="04eKNAp7RKAQqsqCJ_fW-23" value="调用互联网发送资源" style="whiteSpace=wrap;html=1;rounded=1;" parent="1" vertex="1">
          <mxGeometry x="65" y="975" width="120" height="60" as="geometry" />
        </mxCell>
        <mxCell id="04eKNAp7RKAQqsqCJ_fW-29" style="edgeStyle=orthogonalEdgeStyle;rounded=0;orthogonalLoop=1;jettySize=auto;html=1;" parent="1" source="04eKNAp7RKAQqsqCJ_fW-27" edge="1">
          <mxGeometry relative="1" as="geometry">
            <mxPoint x="125" y="695" as="targetPoint" />
          </mxGeometry>
        </mxCell>
        <mxCell id="04eKNAp7RKAQqsqCJ_fW-35" style="edgeStyle=orthogonalEdgeStyle;rounded=0;orthogonalLoop=1;jettySize=auto;html=1;" parent="1" source="04eKNAp7RKAQqsqCJ_fW-27" target="04eKNAp7RKAQqsqCJ_fW-34" edge="1">
          <mxGeometry relative="1" as="geometry" />
        </mxCell>
        <mxCell id="04eKNAp7RKAQqsqCJ_fW-38" style="edgeStyle=orthogonalEdgeStyle;rounded=0;orthogonalLoop=1;jettySize=auto;html=1;entryX=0;entryY=0.75;entryDx=0;entryDy=0;" parent="1" source="04eKNAp7RKAQqsqCJ_fW-27" target="04eKNAp7RKAQqsqCJ_fW-36" edge="1">
          <mxGeometry relative="1" as="geometry">
            <Array as="points">
              <mxPoint x="240" y="585" />
              <mxPoint x="240" y="660" />
            </Array>
          </mxGeometry>
        </mxCell>
        <mxCell id="04eKNAp7RKAQqsqCJ_fW-44" style="edgeStyle=orthogonalEdgeStyle;rounded=0;orthogonalLoop=1;jettySize=auto;html=1;entryX=0;entryY=0.5;entryDx=0;entryDy=0;" parent="1" source="04eKNAp7RKAQqsqCJ_fW-27" target="04eKNAp7RKAQqsqCJ_fW-31" edge="1">
          <mxGeometry relative="1" as="geometry">
            <Array as="points">
              <mxPoint x="240" y="585" />
              <mxPoint x="240" y="520" />
            </Array>
          </mxGeometry>
        </mxCell>
        <mxCell id="04eKNAp7RKAQqsqCJ_fW-27" value="产品规则校验" style="whiteSpace=wrap;html=1;rounded=1;" parent="1" vertex="1">
          <mxGeometry x="65" y="555" width="120" height="60" as="geometry" />
        </mxCell>
        <mxCell id="04eKNAp7RKAQqsqCJ_fW-31" value="互斥规则校验" style="whiteSpace=wrap;html=1;rounded=1;" parent="1" vertex="1">
          <mxGeometry x="290" y="510" width="150" height="20" as="geometry" />
        </mxCell>
        <mxCell id="04eKNAp7RKAQqsqCJ_fW-34" value="产品时间规则校验" style="whiteSpace=wrap;html=1;rounded=1;" parent="1" vertex="1">
          <mxGeometry x="290" y="575" width="150" height="20" as="geometry" />
        </mxCell>
        <mxCell id="04eKNAp7RKAQqsqCJ_fW-36" value="用户订购次数校验" style="whiteSpace=wrap;html=1;rounded=1;" parent="1" vertex="1">
          <mxGeometry x="290" y="646" width="150" height="20" as="geometry" />
        </mxCell>
        <mxCell id="04eKNAp7RKAQqsqCJ_fW-42" style="edgeStyle=orthogonalEdgeStyle;rounded=0;orthogonalLoop=1;jettySize=auto;html=1;" parent="1" source="04eKNAp7RKAQqsqCJ_fW-40" target="04eKNAp7RKAQqsqCJ_fW-27" edge="1">
          <mxGeometry relative="1" as="geometry" />
        </mxCell>
        <mxCell id="04eKNAp7RKAQqsqCJ_fW-40" value="判断领取的nkOrderId是否重复" style="whiteSpace=wrap;html=1;rounded=1;" parent="1" vertex="1">
          <mxGeometry x="65" y="420" width="120" height="60" as="geometry" />
        </mxCell>
        <mxCell id="04eKNAp7RKAQqsqCJ_fW-45" value="" style="ellipse;whiteSpace=wrap;html=1;aspect=fixed;" parent="1" vertex="1">
          <mxGeometry x="100" y="1090" width="50" height="50" as="geometry" />
        </mxCell>
        <mxCell id="LMDw-yIDUV770zruASEo-5" value="是否需要记录订单轨迹" style="text;html=1;strokeColor=none;fillColor=none;align=center;verticalAlign=middle;whiteSpace=wrap;rounded=0;" vertex="1" parent="1">
          <mxGeometry x="410" y="720" width="230" height="20" as="geometry" />
        </mxCell>
      </root>
    </mxGraphModel>
  </diagram>
</mxfile>
